<?xml version="1.0" standalone="no"?><!DOCTYPE svg PUBLIC "-//W3C//DTD SVG 1.1//EN" "http://www.w3.org/Graphics/SVG/1.1/DTD/svg11.dtd"><svg width="100%" height="100%" viewBox="0 0 1676 509" version="1.1" xmlns="http://www.w3.org/2000/svg" xmlns:xlink="http://www.w3.org/1999/xlink" xml:space="preserve" style="fill-rule:evenodd;clip-rule:evenodd;stroke-linejoin:round;stroke-miterlimit:1.41421;"><g id="Layer1"><g><clipPath id="tag1"><rect x="0" y="0" width="1663.53" height="509.815"/></clipPath><g clip-path="url(#tag1)"><path d="M232.824,261.217l-147.013,0l0,238.503l-85.8104,0l0,-499.72l232.824,0l0,73.1913l-147.013,0l0,99.0606l147.013,0l0,88.9652Z" style="fill:#f00;fill-rule:nonzero;"/><rect x="266.36" y="172.252" width="85.1795" height="327.468" style="fill:#f00;fill-rule:nonzero;"/><path d="M702.639,340.087c0,47.1116 -16.2998,87.0724 -48.8993,119.882c-32.5996,32.8099 -72.4551,49.2148 -119.567,49.2148c-47.5323,0 -87.5982,-16.2998 -120.198,-48.8993c-32.5996,-32.5996 -48.8993,-72.6655 -48.8993,-120.198c0,-47.1116 16.4049,-86.9672 49.2148,-119.567c32.8099,-32.5996 72.7706,-48.8993 119.882,-48.8993c29.8654,0 57.6276,7.36119 83.2866,22.0836l0,-193.704l85.1795,0l0,340.087ZM617.459,340.087c0,-22.7145 -8.20247,-42.2743 -24.6074,-58.6792c-16.4049,-16.4049 -35.9647,-24.6074 -58.6792,-24.6074c-23.1352,0 -42.9052,8.09731 -59.3102,24.2919c-16.4049,16.1946 -24.6074,35.8595 -24.6074,58.9947c0,23.1352 8.20247,42.9052 24.6074,59.3102c16.4049,16.4049 36.175,24.6074 59.3102,24.6074c23.1352,0 42.8001,-8.20247 58.9947,-24.6074c16.1946,-16.4049 24.2919,-36.175 24.2919,-59.3102Z" style="fill:#f00;fill-rule:nonzero;"/><path d="M1063.74,340.087c0,8.41279 -0.630959,16.8256 -1.89288,25.2384l-246.705,0c5.46831,17.6669 15.5637,31.8634 30.286,42.5897c14.7224,10.7263 31.3376,16.0895 49.8458,16.0895c25.659,0 46.9013,-9.88503 63.7269,-29.6551l51.7386,68.7745c-32.3892,30.7067 -70.8777,46.06 -115.466,46.06c-47.5323,0 -87.5982,-16.2998 -120.198,-48.8993c-32.5996,-32.5996 -48.8993,-72.6655 -48.8993,-120.198c0,-47.1116 16.4049,-86.9672 49.2148,-119.567c32.8099,-32.5996 72.7706,-48.8993 119.882,-48.8993c47.1116,0 86.9672,16.2998 119.567,48.8993c32.5996,32.5996 48.8993,72.4551 48.8993,119.567ZM968.463,301.598c-15.5637,-29.8654 -39.9607,-44.7981 -73.1913,-44.7981c-33.6512,0 -58.2586,14.9327 -73.8222,44.7981l147.013,0Z" style="fill:#f00;fill-rule:nonzero;"/><rect x="1087.91" y="1.81899e-12" width="85.1795" height="499.72" style="fill:#f00;fill-rule:nonzero;"/><rect x="1206.62" y="172.252" width="85.1795" height="327.468" style="fill:#f00;fill-rule:nonzero;"/><path d="M1663.53,340.718c0,47.5323 -16.2998,87.5982 -48.8993,120.198c-32.5996,32.5996 -72.6655,48.8993 -120.198,48.8993c-47.1116,0 -87.0724,-16.4049 -119.882,-49.2148c-32.8099,-32.8099 -49.2148,-72.7706 -49.2148,-119.882l0,-168.466l85.1795,0l0.630959,168.466c0,23.1352 8.09731,42.9052 24.2919,59.3102c16.1946,16.4049 35.8595,24.6074 58.9947,24.6074c23.1352,0 42.9052,-8.20247 59.3102,-24.6074c16.4049,-16.4049 24.6074,-36.175 24.6074,-59.3102l0,-168.466l85.1795,0l0,168.466Z" style="fill:#f00;fill-rule:nonzero;"/></g></g><circle cx="1369.19" cy="100.339" r="55.0467" style="fill:#000;"/><circle cx="1621.66" cy="100.339" r="55.0467" style="fill:#000;"/></g></svg>