<?xml version="1.0" standalone="no"?>
<!DOCTYPE svg PUBLIC "-//W3C//DTD SVG 1.1//EN" "http://www.w3.org/Graphics/SVG/1.1/DTD/svg11.dtd">
<svg width="100%" height="100%" viewBox="0 0 1676 509" version="1.1" xmlns="http://www.w3.org/2000/svg" xmlns:xlink="http://www.w3.org/1999/xlink" xml:space="preserve" style="fill-rule:evenodd;clip-rule:evenodd;stroke-linejoin:round;stroke-miterlimit:1.41421;">
    <g id="Layer1">
        <g>
            <g>
                <path d="M232.824,261.217L85.8104,261.217L85.8104,499.72L0,499.72L0,3.63798e-12L232.824,3.63798e-12L232.824,73.1913L85.8104,73.1913L85.8104,172.252L232.824,172.252L232.824,261.217Z" style="fill:rgb(255,0,0);fill-rule:nonzero;"/>
                <rect x="266.36" y="172.252" width="85.1795" height="327.468" style="fill:rgb(255,0,0);fill-rule:nonzero;"/>
                <path d="M702.639,340.087C702.639,387.199 686.339,427.159 653.74,459.969C621.14,492.779 581.284,509.184 534.173,509.184C486.641,509.184 446.575,492.884 413.975,460.285C381.376,427.685 365.076,387.619 365.076,340.087C365.076,292.975 381.481,253.12 414.291,220.52C447.1,187.921 487.061,171.621 534.173,171.621C564.038,171.621 591.8,178.982 617.459,193.704L617.459,0L702.639,0L702.639,340.087ZM617.459,340.087C617.459,317.372 609.257,297.813 592.852,281.408C576.447,265.003 556.887,256.8 534.173,256.8C511.038,256.8 491.268,264.898 474.863,281.092C458.458,297.287 450.255,316.952 450.255,340.087C450.255,363.222 458.458,382.992 474.863,399.397C491.268,415.802 511.038,424.005 534.173,424.005C557.308,424.005 576.973,415.802 593.167,399.397C609.362,382.992 617.459,363.222 617.459,340.087Z" style="fill:rgb(255,0,0);fill-rule:nonzero;"/>
                <path d="M1063.74,340.087C1063.74,348.5 1063.11,356.913 1061.85,365.325L815.14,365.325C820.609,382.992 830.704,397.189 845.426,407.915C860.149,418.641 876.764,424.005 895.272,424.005C920.931,424.005 942.173,414.119 958.999,394.349L1010.74,463.124C978.348,493.831 939.86,509.184 895.272,509.184C847.74,509.184 807.674,492.884 775.074,460.285C742.475,427.685 726.175,387.619 726.175,340.087C726.175,292.975 742.58,253.12 775.39,220.52C808.2,187.921 848.16,171.621 895.272,171.621C942.384,171.621 982.239,187.921 1014.84,220.52C1047.44,253.12 1063.74,292.975 1063.74,340.087ZM968.463,301.598C952.9,271.733 928.503,256.8 895.272,256.8C861.621,256.8 837.014,271.733 821.45,301.598L968.463,301.598Z" style="fill:rgb(255,0,0);fill-rule:nonzero;"/>
                <rect x="1087.91" y="1.81899e-12" width="85.1795" height="499.72" style="fill:rgb(255,0,0);fill-rule:nonzero;"/>
                <rect x="1206.62" y="172.252" width="85.1795" height="327.468" style="fill:rgb(255,0,0);fill-rule:nonzero;"/>
                <path d="M1670.05,340.718C1670.05,388.25 1653.44,428.316 1620.21,460.916C1586.98,493.515 1546.14,509.815 1497.69,509.815C1449.67,509.815 1408.94,493.41 1375.5,460.6C1342.06,427.79 1325.34,387.83 1325.34,340.718L1325.34,172.252L1412.16,172.252L1412.8,340.718C1412.8,363.853 1421.05,383.623 1437.56,400.028C1454.07,416.433 1474.11,424.635 1497.69,424.635C1521.27,424.635 1541.43,416.433 1558.15,400.028C1574.87,383.623 1583.23,363.853 1583.23,340.718L1583.23,172.252L1670.05,172.252L1670.05,340.718Z" style="fill:rgb(255,0,0);fill-rule:nonzero;"/>
            </g>
            <circle cx="1369.19" cy="100.339" r="55.0467" style="fill:black;"/>
            <circle cx="1621.66" cy="100.339" r="55.0467" style="fill:black;"/>
        </g>
    </g>
</svg>
